<svg xmlns="http://www.w3.org/2000/svg" xmlns:xlink="http://www.w3.org/1999/xlink" width="500" zoomAndPan="magnify" viewBox="0 0 375 374.999991" height="500" preserveAspectRatio="xMidYMid meet" version="1.0"><defs><clipPath id="122f0efa48"><path d="M 308 161 L 343.621094 161 L 343.621094 241 L 308 241 Z M 308 161 " clip-rule="nonzero"/></clipPath><clipPath id="7c049ee1bb"><path d="M 310.496094 161.265625 C 329.496094 194.738281 338.039062 216.527344 340.828125 226.988281 C 342.222656 232.566406 343.621094 239.714844 342.746094 240.066406 C 342.050781 240.238281 339.957031 236.753906 338.214844 233.441406 C 333.855469 224.898438 326.183594 198.222656 320.433594 185.496094 C 316.421875 176.605469 309.625 167.191406 308.75 163.53125 C 308.402344 162.484375 308.402344 161.613281 308.75 161.265625 C 309.101562 160.914062 310.496094 161.265625 310.496094 161.265625 " clip-rule="nonzero"/></clipPath><clipPath id="fc49d8d1b6"><path d="M 338 231 L 357 231 L 357 275 L 338 275 Z M 338 231 " clip-rule="nonzero"/></clipPath><clipPath id="3bf1395b27"><path d="M 340.308594 231.695312 C 355.125 260.113281 356.171875 263.601562 356.519531 266.914062 C 356.867188 269.527344 357.042969 273.886719 356.347656 274.058594 C 354.601562 274.410156 340.308594 240.066406 338.914062 234.484375 C 338.5625 233.089844 338.390625 232.046875 338.738281 231.695312 C 339.085938 231.347656 340.308594 231.695312 340.308594 231.695312 " clip-rule="nonzero"/></clipPath><clipPath id="f17c2bd981"><path d="M 214.433594 272 L 355 272 L 355 285 L 214.433594 285 Z M 214.433594 272 " clip-rule="nonzero"/></clipPath><clipPath id="5173fb615c"><path d="M 215.480469 281.558594 C 336.996094 272.316406 354.777344 271.96875 354.953125 273.363281 C 355.125 274.058594 351.117188 275.457031 347.976562 276.152344 C 342.050781 277.371094 332.460938 275.976562 320.957031 276.675781 C 300.90625 277.722656 256.625 283.300781 237.972656 284.171875 C 228.554688 284.519531 220.1875 285.21875 216.703125 284.171875 C 215.480469 283.824219 214.433594 283.125 214.433594 282.601562 C 214.433594 282.253906 215.480469 281.558594 215.480469 281.558594 " clip-rule="nonzero"/></clipPath><clipPath id="b123159ec5"><path d="M 156 155 L 307 155 L 307 164 L 156 164 Z M 156 155 " clip-rule="nonzero"/></clipPath><clipPath id="975c15dcef"><path d="M 157.078125 158.125 C 183.75 154.8125 206.242188 155.335938 225.765625 155.683594 C 248.429688 156.035156 287.832031 156.207031 299.511719 158.300781 C 303.347656 158.996094 307.007812 160.042969 306.835938 160.742188 C 306.3125 163.53125 161.261719 164.75 156.902344 159.871094 C 156.378906 159.347656 157.078125 158.125 157.078125 158.125 " clip-rule="nonzero"/></clipPath><clipPath id="5a5c8ce698"><path d="M 126.742188 158 L 158 158 L 158 212 L 126.742188 212 Z M 126.742188 158 " clip-rule="nonzero"/></clipPath><clipPath id="6de4ce46a4"><path d="M 126.742188 210.425781 C 140.515625 182.183594 146.964844 171.203125 151.152344 165.621094 C 153.589844 162.308594 157.253906 158.125 157.777344 158.476562 C 158.296875 158.824219 156.902344 162.660156 155.335938 165.972656 C 151.847656 173.816406 137.902344 196.132812 133.195312 203.800781 C 131.101562 207.289062 129.707031 210.949219 128.3125 211.300781 C 127.789062 211.472656 126.742188 210.425781 126.742188 210.425781 " clip-rule="nonzero"/></clipPath><clipPath id="dbf8cee1d2"><path d="M 100 254 L 126.742188 254 L 126.742188 282 L 100 282 Z M 100 254 " clip-rule="nonzero"/></clipPath><clipPath id="91926b95f8"><path d="M 110.007812 255.230469 C 101.8125 279.464844 100.765625 279.464844 100.59375 279.289062 C 100.417969 279.117188 100.59375 277.894531 101.117188 277.371094 C 102.335938 276.328125 106.171875 276.328125 109.308594 276.152344 C 113.84375 275.976562 124.476562 276.152344 126.046875 277.722656 C 126.570312 278.246094 126.21875 279.464844 126.21875 279.464844 C 126.21875 279.464844 126.21875 277.722656 126.21875 277.722656 C 126.21875 277.722656 126.570312 279.117188 126.21875 279.464844 C 125.523438 280.335938 122.386719 280.164062 119.59375 280.164062 C 114.886719 280.335938 102.859375 282.429688 100.59375 279.289062 C 98.328125 276.328125 103.554688 266.738281 105.125 262.207031 C 106.171875 259.066406 107.390625 254.710938 108.4375 254.359375 C 108.960938 254.1875 110.007812 255.230469 110.007812 255.230469 " clip-rule="nonzero"/></clipPath><clipPath id="dd19dedc56"><path d="M 174 202.058594 L 218 202.058594 L 218 283.996094 L 174 283.996094 Z M 174 202.058594 " clip-rule="nonzero"/></clipPath><clipPath id="bf3735136f"><path d="M 176.082031 202.058594 C 182.707031 209.382812 188.632812 228.382812 194.5625 240.9375 C 201.183594 254.710938 218.792969 282.078125 217.222656 283.300781 C 216.527344 283.824219 211.472656 279.464844 208.507812 275.804688 C 203.453125 269.527344 197.523438 256.800781 192.644531 246.863281 C 187.585938 236.753906 181.835938 223.851562 178.695312 216.007812 C 176.777344 211.300781 174.511719 207.113281 174.6875 204.675781 C 174.859375 203.453125 176.082031 202.058594 176.082031 202.058594 " clip-rule="nonzero"/></clipPath><clipPath id="19381f64bc"><path d="M 142.257812 210 L 145 210 L 145 214 L 142.257812 214 Z M 142.257812 210 " clip-rule="nonzero"/></clipPath><clipPath id="0f4a55d10a"><path d="M 142.257812 212.171875 C 146.09375 207.636719 144.527344 213.042969 143.652344 213.214844 C 143.132812 213.390625 142.257812 212.171875 142.257812 212.171875 " clip-rule="nonzero"/></clipPath><clipPath id="1871979805"><path d="M 141.5625 166 L 161 166 L 161 213.566406 L 141.5625 213.566406 Z M 141.5625 166 " clip-rule="nonzero"/></clipPath><clipPath id="96e5130e78"><path d="M 141.5625 211.472656 C 156.902344 171.203125 159.691406 166.320312 160.390625 166.496094 C 161.085938 166.667969 160.214844 171.550781 159.519531 174.863281 C 158.296875 180.441406 154.8125 190.03125 152.023438 196.65625 C 149.582031 202.234375 146.445312 209.902344 144.351562 211.996094 C 143.480469 212.867188 142.609375 213.214844 142.085938 213.042969 C 141.738281 212.867188 141.5625 211.472656 141.5625 211.472656 " clip-rule="nonzero"/></clipPath><clipPath id="4a81672cce"><path d="M 161 165.097656 L 306 165.097656 L 306 171 L 161 171 Z M 161 165.097656 " clip-rule="nonzero"/></clipPath><clipPath id="2c77b32cd2"><path d="M 161.960938 165.621094 C 270.398438 165.621094 305.789062 167.367188 305.789062 168.585938 C 305.789062 169.109375 300.90625 169.980469 296.546875 170.15625 C 286.960938 170.679688 267.257812 168.238281 249.476562 167.890625 C 226.464844 167.367188 183.578125 168.238281 170.503906 167.890625 C 166.144531 167.714844 162.65625 168.238281 161.785156 167.367188 C 161.4375 167.015625 161.960938 165.621094 161.960938 165.621094 " clip-rule="nonzero"/></clipPath><clipPath id="c020957360"><path d="M 159.691406 172.074219 L 161 172.074219 L 161 173 L 159.691406 173 Z M 159.691406 172.074219 " clip-rule="nonzero"/></clipPath><clipPath id="085e89cce8"><path d="M 160.390625 172.074219 C 160.738281 173.816406 159.691406 172.246094 159.691406 172.246094 " clip-rule="nonzero"/></clipPath><clipPath id="d6377fa95d"><path d="M 157 169.804688 L 163.179688 169.804688 L 163.179688 175 L 157 175 Z M 157 169.804688 " clip-rule="nonzero"/></clipPath><clipPath id="541fef8001"><path d="M 161.785156 170.15625 C 162.308594 174.515625 158.996094 174.863281 158.472656 174.164062 C 157.949219 173.46875 158.996094 170.15625 159.867188 169.980469 C 160.566406 169.804688 163.179688 171.898438 163.179688 172.769531 C 163.179688 173.640625 160.214844 175.210938 159.34375 174.863281 C 158.472656 174.515625 157.601562 172.074219 157.949219 171.203125 C 158.296875 170.328125 161.261719 169.804688 161.261719 169.804688 " clip-rule="nonzero"/></clipPath><clipPath id="5cd0cd6896"><path d="M 156 166 L 211 166 L 211 231 L 156 231 Z M 156 166 " clip-rule="nonzero"/></clipPath><clipPath id="5fbce8bd8b"><path d="M 164.921875 168.933594 C 169.105469 173.46875 168.410156 178.175781 171.023438 181.835938 C 176.253906 188.984375 198.394531 199.09375 204.324219 206.070312 C 207.460938 209.554688 208.855469 212.171875 209.554688 215.832031 C 210.425781 220.191406 210.078125 229.777344 208.332031 230.652344 C 207.460938 231.171875 204.671875 229.429688 204.496094 228.558594 C 204.324219 227.859375 205.542969 226.117188 206.242188 225.769531 C 206.9375 225.421875 208.160156 225.59375 208.683594 226.117188 C 209.378906 226.816406 209.726562 229.082031 209.203125 229.777344 C 208.683594 230.476562 206.765625 230.824219 205.371094 230.128906 C 202.058594 228.558594 199.269531 218.273438 193.863281 212.695312 C 186.714844 205.371094 170.503906 198.050781 164.398438 192.121094 C 160.914062 188.636719 158.820312 186.195312 157.601562 182.707031 C 156.378906 179.222656 156.03125 174.164062 157.078125 171.375 C 157.777344 169.285156 160.042969 166.667969 161.4375 166.496094 C 162.65625 166.320312 164.921875 168.933594 164.921875 168.933594 " clip-rule="nonzero"/></clipPath><clipPath id="537224c207"><path d="M 123 262.207031 L 208 262.207031 L 208 288 L 123 288 Z M 123 262.207031 " clip-rule="nonzero"/></clipPath><clipPath id="2a457f6c65"><path d="M 130.054688 262.207031 C 128.835938 283.648438 131.972656 272.316406 133.542969 271.96875 C 134.238281 271.792969 135.113281 272.664062 135.632812 273.539062 C 136.507812 275.28125 134.238281 282.601562 135.285156 283.300781 C 135.984375 283.648438 137.902344 282.429688 138.945312 281.207031 C 140.691406 279.289062 141.386719 272.144531 142.78125 271.621094 C 143.480469 271.445312 144.527344 272.144531 145.046875 273.015625 C 145.921875 274.410156 144.699219 280.683594 145.398438 280.859375 C 146.09375 281.035156 147.664062 275.976562 149.058594 275.28125 C 149.929688 274.933594 151.324219 274.933594 152.023438 275.628906 C 153.066406 276.5 152.894531 281.207031 153.589844 281.207031 C 154.464844 281.207031 155.507812 274.234375 156.730469 273.886719 C 157.425781 273.710938 158.125 274.410156 158.648438 275.105469 C 159.34375 276.152344 158.648438 279.8125 159.34375 280.683594 C 159.867188 281.207031 160.738281 281.558594 161.261719 281.207031 C 162.484375 280.683594 163.003906 274.757812 164.226562 274.234375 C 164.921875 273.886719 165.96875 274.234375 166.492188 274.933594 C 167.363281 275.804688 166.492188 279.464844 167.191406 280.511719 C 167.710938 281.207031 168.585938 281.382812 169.28125 281.558594 C 169.980469 281.730469 171.023438 281.90625 171.375 281.382812 C 171.898438 280.859375 171.023438 278.246094 171.546875 277.371094 C 171.898438 276.675781 172.769531 275.976562 173.640625 275.976562 C 174.859375 276.152344 176.953125 279.8125 178.347656 280.335938 C 179.042969 280.683594 180.265625 280.511719 180.4375 280.164062 C 180.613281 279.8125 179.042969 278.941406 179.21875 278.59375 C 179.566406 277.894531 187.9375 278.765625 187.9375 278.765625 C 187.9375 278.765625 186.367188 278.941406 186.191406 278.59375 C 186.019531 278.070312 187.0625 275.976562 187.9375 275.804688 C 189.15625 275.628906 191.421875 279.988281 192.992188 279.988281 C 194.5625 279.988281 195.957031 276.328125 197.351562 276.152344 C 198.746094 275.976562 199.789062 278.59375 201.359375 278.765625 C 203.101562 279.117188 207.289062 277.722656 207.460938 277.023438 C 207.460938 276.675781 206.242188 275.976562 206.242188 275.976562 C 206.242188 275.976562 207.460938 276.328125 207.460938 276.851562 C 207.636719 277.894531 204.324219 282.601562 202.929688 283.300781 C 202.230469 283.648438 201.707031 283.476562 201.011719 283.300781 C 199.789062 282.953125 196.828125 282.429688 196.128906 281.207031 C 195.433594 280.164062 195.605469 277.199219 196.304688 276.5 C 196.828125 275.976562 198.746094 276.328125 199.269531 276.851562 C 199.789062 277.371094 199.964844 279.117188 199.617188 280.164062 C 199.269531 281.207031 198.222656 282.601562 197.175781 283.300781 C 195.957031 283.996094 194.039062 284.519531 192.644531 284.347656 C 191.25 284.171875 189.503906 283.476562 188.457031 282.429688 C 187.414062 281.558594 186.019531 279.640625 186.191406 278.59375 C 186.367188 277.546875 188.109375 275.804688 188.980469 275.804688 C 189.855469 275.976562 191.25 278.246094 191.421875 279.464844 C 191.597656 280.335938 191.421875 281.558594 190.550781 282.078125 C 189.15625 283.125 183.054688 283.648438 180.960938 282.429688 C 179.394531 281.558594 178 278.59375 178.171875 277.199219 C 178.347656 276.328125 179.21875 275.28125 179.917969 275.105469 C 180.789062 274.933594 182.355469 275.457031 183.054688 276.328125 C 183.925781 277.199219 184.796875 279.464844 184.625 280.859375 C 184.449219 282.078125 183.402344 283.300781 182.355469 283.996094 C 181.136719 284.695312 179.394531 285.042969 177.824219 284.695312 C 176.082031 284.347656 173.292969 282.777344 172.246094 281.382812 C 171.546875 280.335938 171.023438 278.765625 171.375 277.894531 C 171.722656 277.023438 172.941406 275.976562 173.640625 275.976562 C 174.335938 275.976562 175.382812 277.023438 175.730469 277.894531 C 176.253906 279.117188 176.253906 281.90625 175.382812 283.125 C 174.511719 284.519531 171.898438 285.742188 169.980469 285.742188 C 167.710938 285.566406 163.527344 283.476562 162.65625 281.382812 C 161.785156 279.464844 163.179688 274.582031 164.226562 274.234375 C 164.921875 273.886719 166.492188 275.105469 166.839844 275.976562 C 167.363281 277.371094 166.492188 281.035156 165.273438 282.601562 C 164.050781 284.171875 161.085938 286.089844 159.34375 285.742188 C 157.601562 285.390625 155.859375 282.601562 155.160156 280.859375 C 154.464844 279.117188 154.113281 276.5 154.8125 275.28125 C 155.335938 274.410156 156.554688 273.710938 157.253906 273.886719 C 157.949219 274.058594 158.648438 274.757812 158.820312 275.628906 C 159.171875 277.023438 158.996094 280.683594 157.777344 282.253906 C 156.554688 283.824219 153.417969 285.390625 152.023438 285.042969 C 150.800781 284.871094 149.929688 283.476562 149.40625 282.253906 C 148.535156 280.683594 147.839844 277.371094 148.359375 275.804688 C 148.710938 274.582031 150.105469 273.015625 150.976562 273.015625 C 151.671875 273.015625 152.546875 273.886719 152.71875 274.757812 C 153.066406 276.152344 152.371094 279.8125 151.152344 281.558594 C 149.929688 283.300781 146.964844 285.742188 145.222656 285.566406 C 143.828125 285.390625 142.257812 283.300781 141.5625 281.558594 C 140.691406 279.289062 140.515625 274.582031 141.214844 273.015625 C 141.5625 272.316406 142.257812 271.621094 142.78125 271.621094 C 143.480469 271.621094 144.699219 272.839844 145.046875 273.886719 C 145.570312 275.804688 143.480469 280.859375 142.257812 283.125 C 141.386719 284.695312 140.515625 285.742188 139.296875 286.4375 C 137.902344 287.308594 135.460938 288.355469 134.238281 287.832031 C 133.019531 287.484375 132.148438 285.914062 131.625 284.347656 C 130.925781 282.253906 131.101562 277.894531 131.625 275.628906 C 131.972656 274.058594 132.84375 272.144531 133.542969 271.96875 C 134.238281 271.792969 135.285156 273.015625 135.632812 274.058594 C 136.15625 275.804688 134.414062 280.511719 133.195312 282.601562 C 132.148438 284.347656 130.578125 285.914062 129.183594 286.4375 C 128.136719 286.785156 127.09375 287.136719 126.21875 286.613281 C 125 285.914062 124.128906 283.648438 123.78125 281.382812 C 123.257812 277.199219 125.699219 264.996094 127.613281 262.902344 C 128.3125 262.207031 130.054688 262.207031 130.054688 262.207031 " clip-rule="nonzero"/></clipPath><clipPath id="bacbf4ba23"><path d="M 6 203 L 146 203 L 146 262 L 6 262 Z M 6 203 " clip-rule="nonzero"/></clipPath><clipPath id="3cb1b9c361"><path d="M 144.351562 220.015625 C 85.601562 207.289062 69.039062 206.070312 55.089844 206.941406 C 42.886719 207.8125 28.066406 210.253906 20.921875 213.566406 C 17.085938 215.308594 14.820312 217.402344 13.074219 219.667969 C 11.679688 221.410156 10.460938 223.328125 10.632812 225.59375 C 10.984375 228.734375 13.074219 233.789062 17.609375 236.402344 C 27.195312 241.980469 57.53125 236.925781 75.488281 240.414062 C 92.050781 243.726562 109.136719 252.964844 122.035156 255.753906 C 130.753906 257.671875 143.132812 256.453125 144.351562 258.195312 C 144.699219 258.71875 143.828125 259.9375 143.828125 259.9375 C 143.828125 259.9375 145.046875 258.542969 144.875 258.371094 C 144.527344 258.019531 141.039062 261.160156 138.074219 261.683594 C 133.367188 262.378906 126.570312 260.636719 118.898438 258.894531 C 106.695312 255.929688 88.5625 246.691406 72.175781 243.550781 C 54.917969 240.238281 28.242188 245.121094 17.957031 240.414062 C 12.902344 238.148438 10.285156 233.613281 8.542969 230.824219 C 7.496094 229.082031 6.800781 227.859375 6.972656 226.117188 C 7.148438 223.503906 9.066406 219.492188 11.15625 216.878906 C 13.25 214.261719 15.691406 212.34375 19.875 210.601562 C 27.371094 207.289062 42.539062 204.675781 55.089844 203.800781 C 69.386719 202.929688 86.296875 204.152344 101.117188 206.417969 C 115.410156 208.507812 137.203125 213.738281 142.957031 216.703125 C 144.699219 217.574219 145.921875 218.621094 145.921875 219.144531 C 145.921875 219.492188 144.351562 220.015625 144.351562 220.015625 " clip-rule="nonzero"/></clipPath><clipPath id="4a335bb3ea"><path d="M 314.332031 61 L 368.375 61 L 368.375 210 L 314.332031 210 Z M 314.332031 61 " clip-rule="nonzero"/></clipPath><clipPath id="546fd682ba"><path d="M 321.476562 180.789062 C 328.976562 165.621094 329.148438 161.089844 328.453125 154.8125 C 327.230469 144.003906 317.992188 121.339844 315.898438 111.753906 C 314.855469 107.046875 314.332031 104.429688 314.332031 100.941406 C 314.332031 97.804688 314.855469 95.015625 315.726562 91.878906 C 316.597656 88.042969 317.992188 83.683594 319.910156 79.847656 C 322 76.011719 324.789062 71.65625 327.929688 68.863281 C 330.890625 66.25 334.554688 64.507812 338.039062 63.113281 C 341.179688 61.890625 345.363281 60.84375 347.804688 61.019531 C 349.546875 61.195312 350.765625 61.71875 351.8125 62.761719 C 353.035156 63.808594 353.730469 65.203125 354.429688 67.296875 C 355.824219 70.78125 357.21875 77.234375 357.566406 82.289062 C 357.914062 87.171875 357.566406 91.703125 356.519531 96.757812 C 355.472656 102.339844 351.640625 109.660156 350.941406 114.367188 C 350.59375 117.332031 350.417969 118.550781 351.117188 121.863281 C 352.683594 129.1875 363.492188 146.792969 366.109375 155.164062 C 367.503906 159.871094 368.027344 163.183594 368.027344 166.84375 C 368.027344 169.980469 367.851562 172.597656 366.980469 175.558594 C 365.933594 179.046875 364.015625 182.535156 361.402344 186.195312 C 357.914062 191.25 351.464844 198.574219 346.757812 202.40625 C 343.269531 205.195312 339.957031 207.113281 336.820312 208.160156 C 334.554688 208.859375 330.371094 209.554688 330.195312 208.859375 C 329.847656 207.8125 339.261719 203.105469 343.621094 199.09375 C 348.675781 194.5625 354.949219 188.113281 358.4375 182.707031 C 361.226562 178.347656 363.144531 174.164062 363.667969 169.632812 C 364.191406 165.097656 363.144531 161.089844 361.402344 155.683594 C 358.785156 147.144531 348.847656 132.148438 346.933594 124.304688 C 345.886719 119.945312 346.058594 118.027344 346.410156 113.84375 C 347.105469 106.871094 352.683594 94.839844 353.207031 87.171875 C 353.554688 81.417969 352.335938 75.488281 351.289062 71.65625 C 350.765625 69.386719 350.417969 67.46875 349.199219 66.425781 C 348.328125 65.554688 347.105469 65.554688 345.535156 65.554688 C 343.097656 65.726562 338.738281 67.46875 335.773438 69.039062 C 333.160156 70.433594 330.890625 72.003906 328.800781 74.269531 C 326.535156 76.710938 324.789062 79.847656 323.222656 83.160156 C 321.652344 86.648438 320.433594 90.308594 319.734375 94.320312 C 319.039062 98.851562 318.863281 102.859375 319.734375 109.136719 C 321.304688 120.292969 331.589844 142.957031 332.808594 154.640625 C 333.507812 161.613281 333.160156 167.015625 331.414062 171.722656 C 330.019531 175.558594 326.359375 179.742188 324.441406 181.3125 C 323.570312 182.011719 322.699219 182.535156 322.175781 182.359375 C 321.828125 182.183594 321.476562 180.789062 321.476562 180.789062 " clip-rule="nonzero"/></clipPath><clipPath id="ec3b9a4ab3"><path d="M 326 175.386719 L 349 175.386719 L 349 190 L 326 190 Z M 326 175.386719 " clip-rule="nonzero"/></clipPath><clipPath id="5440c08db3"><path d="M 326.183594 175.910156 C 336.121094 175.910156 340.132812 177.652344 342.222656 179.046875 C 343.621094 179.917969 344.664062 180.617188 345.535156 182.011719 C 346.757812 183.929688 349.199219 189.507812 348.5 189.855469 C 347.628906 190.378906 340.480469 180.789062 336.296875 178.871094 C 332.984375 177.304688 327.230469 178.699219 326.183594 177.652344 C 325.835938 177.128906 326.183594 175.910156 326.183594 175.910156 " clip-rule="nonzero"/></clipPath><clipPath id="45389fb8cf"><path d="M 330.542969 158 L 354 158 L 354 167 L 330.542969 167 Z M 330.542969 158 " clip-rule="nonzero"/></clipPath><clipPath id="3989926910"><path d="M 330.542969 160.742188 C 337.167969 157.429688 339.609375 157.777344 342.222656 158.648438 C 345.710938 159.871094 353.90625 165.972656 353.730469 166.496094 C 353.382812 167.015625 342.574219 160.566406 338.390625 160.390625 C 335.773438 160.21875 332.808594 162.832031 331.589844 162.308594 C 330.894531 162.136719 330.542969 160.742188 330.542969 160.742188 " clip-rule="nonzero"/></clipPath><clipPath id="19cfe2eedd"><path d="M 125 216.527344 L 133 216.527344 L 133 249 L 125 249 Z M 125 216.527344 " clip-rule="nonzero"/></clipPath><clipPath id="84bc59fc21"><path d="M 132.84375 217.75 C 127.613281 237.796875 127.441406 248.78125 126.917969 248.78125 C 126.394531 248.78125 125 236.925781 125.523438 231.871094 C 126.046875 227.339844 128.3125 222.28125 129.53125 219.667969 C 130.230469 218.273438 130.925781 216.527344 131.625 216.527344 C 131.972656 216.527344 132.84375 217.75 132.84375 217.75 " clip-rule="nonzero"/></clipPath><clipPath id="ddb2feb4ac"><path d="M 105 211 L 111.226562 211 L 111.226562 226 L 105 226 Z M 105 211 " clip-rule="nonzero"/></clipPath><clipPath id="d7bdf1091f"><path d="M 111.226562 212.867188 C 103.730469 236.578125 105.996094 221.757812 107.21875 217.402344 C 107.914062 214.960938 108.785156 212.34375 109.660156 211.996094 C 110.179688 211.820312 111.226562 212.867188 111.226562 212.867188 " clip-rule="nonzero"/></clipPath><clipPath id="4669cb55d2"><path d="M 79 207 L 89 207 L 89 226 L 79 226 Z M 79 207 " clip-rule="nonzero"/></clipPath><clipPath id="e3a666af08"><path d="M 87.515625 209.730469 C 77.929688 235.183594 78.976562 223.152344 80.371094 218.273438 C 81.414062 214.4375 83.332031 209.554688 85.25 208.335938 C 86.296875 207.636719 88.390625 207.8125 88.5625 208.160156 C 88.738281 208.507812 87.515625 209.730469 87.515625 209.730469 " clip-rule="nonzero"/></clipPath><clipPath id="3e8b8f0202"><path d="M 50 207 L 57 207 L 57 222 L 50 222 Z M 50 207 " clip-rule="nonzero"/></clipPath><clipPath id="a1911d130a"><path d="M 56.660156 209.207031 C 49.6875 230.652344 50.035156 219.144531 51.082031 214.960938 C 51.777344 211.996094 53.347656 208.160156 54.566406 207.8125 C 55.265625 207.636719 56.660156 209.207031 56.660156 209.207031 " clip-rule="nonzero"/></clipPath><clipPath id="2c95c8cc08"><path d="M 142.257812 186 L 159 186 L 159 271.445312 L 142.257812 271.445312 Z M 142.257812 186 " clip-rule="nonzero"/></clipPath><clipPath id="e316b6b405"><path d="M 142.257812 271.269531 C 149.929688 207.8125 151.671875 198.921875 153.941406 193.34375 C 155.335938 190.03125 157.777344 185.84375 158.296875 186.019531 C 159.34375 186.542969 151.671875 208.859375 149.058594 221.933594 C 146.09375 236.925781 142.257812 271.269531 142.257812 271.269531 " clip-rule="nonzero"/></clipPath><clipPath id="c9a6e70e4b"><path d="M 154 186.542969 L 160 186.542969 L 160 261.507812 L 154 261.507812 Z M 154 186.542969 " clip-rule="nonzero"/></clipPath><clipPath id="01050a890a"><path d="M 159.867188 186.542969 C 155.683594 245.992188 157.425781 261.507812 157.253906 261.507812 C 157.078125 261.507812 154.464844 245.992188 154.289062 236.230469 C 154.113281 222.804688 156.207031 193.691406 158.296875 188.460938 C 158.820312 187.242188 159.867188 186.542969 159.867188 186.542969 " clip-rule="nonzero"/></clipPath><clipPath id="90eb18be62"><path d="M 160.566406 188.808594 L 173 188.808594 L 173 260 L 160.566406 260 Z M 160.566406 188.808594 " clip-rule="nonzero"/></clipPath><clipPath id="d477d7be81"><path d="M 160.566406 188.808594 C 163.878906 202.058594 162.132812 214.960938 163.703125 225.070312 C 165.273438 236.054688 173.640625 258.894531 172.941406 259.242188 C 172.59375 259.417969 169.628906 253.140625 168.0625 248.957031 C 165.96875 243.378906 163.703125 236.402344 162.484375 228.382812 C 160.738281 217.402344 160.566406 188.808594 160.566406 188.808594 " clip-rule="nonzero"/></clipPath><clipPath id="cac5078880"><path d="M 161.785156 189.507812 L 190 189.507812 L 190 262.726562 L 161.785156 262.726562 Z M 161.785156 189.507812 " clip-rule="nonzero"/></clipPath><clipPath id="2e31f8235b"><path d="M 161.785156 189.507812 C 170.328125 218.96875 189.855469 261.855469 189.503906 262.03125 C 189.15625 262.207031 175.558594 234.3125 171.023438 223.503906 C 167.886719 215.832031 165.445312 209.554688 163.878906 203.453125 C 162.65625 198.398438 161.785156 189.507812 161.785156 189.507812 " clip-rule="nonzero"/></clipPath></defs><g clip-path="url(#122f0efa48)"><g clip-path="url(#7c049ee1bb)"><path fill="#55d6c2" d="M 301.777344 154.289062 L 350.59375 154.289062 L 350.59375 246.691406 L 301.777344 246.691406 Z M 301.777344 154.289062 " fill-opacity="1" fill-rule="nonzero"/></g></g><g clip-path="url(#fc49d8d1b6)"><g clip-path="url(#3bf1395b27)"><path fill="#55d6c2" d="M 331.765625 224.722656 L 363.144531 224.722656 L 363.144531 280.511719 L 331.765625 280.511719 Z M 331.765625 224.722656 " fill-opacity="1" fill-rule="nonzero"/></g></g><g clip-path="url(#f17c2bd981)"><g clip-path="url(#5173fb615c)"><path fill="#55d6c2" d="M 207.460938 265.867188 L 362.621094 265.867188 L 362.621094 292.015625 L 207.460938 292.015625 Z M 207.460938 265.867188 " fill-opacity="1" fill-rule="nonzero"/></g></g><g clip-path="url(#b123159ec5)"><g clip-path="url(#975c15dcef)"><path fill="#55d6c2" d="M 149.929688 148.710938 L 313.808594 148.710938 L 313.808594 167.890625 L 149.929688 167.890625 Z M 149.929688 148.710938 " fill-opacity="1" fill-rule="nonzero"/></g></g><g clip-path="url(#5a5c8ce698)"><g clip-path="url(#6de4ce46a4)"><path fill="#55d6c2" d="M 119.769531 151.5 L 165.097656 151.5 L 165.097656 217.75 L 119.769531 217.75 Z M 119.769531 151.5 " fill-opacity="1" fill-rule="nonzero"/></g></g><g clip-path="url(#dbf8cee1d2)"><g clip-path="url(#91926b95f8)"><path fill="#55d6c2" d="M 93.621094 247.386719 L 133.71875 247.386719 L 133.71875 287.484375 L 93.621094 287.484375 Z M 93.621094 247.386719 " fill-opacity="1" fill-rule="nonzero"/></g></g><g clip-path="url(#dd19dedc56)"><g clip-path="url(#bf3735136f)"><path fill="#55d6c2" d="M 167.710938 195.085938 L 223.5 195.085938 L 223.5 290.972656 L 167.710938 290.972656 Z M 167.710938 195.085938 " fill-opacity="1" fill-rule="nonzero"/></g></g><g clip-path="url(#19381f64bc)"><g clip-path="url(#0f4a55d10a)"><path fill="#2d90eb" d="M 135.285156 200.488281 L 152.71875 200.488281 L 152.71875 219.667969 L 135.285156 219.667969 Z M 135.285156 200.488281 " fill-opacity="1" fill-rule="nonzero"/></g></g><g clip-path="url(#1871979805)"><g clip-path="url(#96e5130e78)"><path fill="#55d6c2" d="M 134.589844 159.519531 L 167.710938 159.519531 L 167.710938 220.539062 L 134.589844 220.539062 Z M 134.589844 159.519531 " fill-opacity="1" fill-rule="nonzero"/></g></g><g clip-path="url(#4a81672cce)"><g clip-path="url(#2c77b32cd2)"><path fill="#ffffff" d="M 154.8125 158.125 L 313.457031 158.125 L 313.457031 177.304688 L 154.8125 177.304688 Z M 154.8125 158.125 " fill-opacity="1" fill-rule="nonzero"/></g></g><g clip-path="url(#c020957360)"><g clip-path="url(#085e89cce8)"><path fill="#004aad" d="M 152.71875 165.097656 L 168.410156 165.097656 L 168.410156 180.789062 L 152.71875 180.789062 Z M 152.71875 165.097656 " fill-opacity="1" fill-rule="nonzero"/></g></g><g clip-path="url(#d6377fa95d)"><g clip-path="url(#541fef8001)"><path fill="#004aad" d="M 150.976562 162.832031 L 170.152344 162.832031 L 170.152344 182.011719 L 150.976562 182.011719 Z M 150.976562 162.832031 " fill-opacity="1" fill-rule="nonzero"/></g></g><g clip-path="url(#5cd0cd6896)"><g clip-path="url(#5fbce8bd8b)"><path fill="#55d6c2" d="M 150.105469 159.519531 L 216.351562 159.519531 L 216.351562 237.972656 L 150.105469 237.972656 Z M 150.105469 159.519531 " fill-opacity="1" fill-rule="nonzero"/></g></g><g clip-path="url(#537224c207)"><g clip-path="url(#2a457f6c65)"><path fill="#ffffff" d="M 116.804688 255.230469 L 214.433594 255.230469 L 214.433594 295.328125 L 116.804688 295.328125 Z M 116.804688 255.230469 " fill-opacity="1" fill-rule="nonzero"/></g></g><g clip-path="url(#bacbf4ba23)"><g clip-path="url(#3cb1b9c361)"><path fill="#f49097" d="M 0 196.828125 L 153.417969 196.828125 L 153.417969 268.308594 L 0 268.308594 Z M 0 196.828125 " fill-opacity="1" fill-rule="nonzero"/></g></g><g clip-path="url(#4a335bb3ea)"><g clip-path="url(#546fd682ba)"><path fill="#f49097" d="M 307.355469 54.046875 L 375.347656 54.046875 L 375.347656 216.179688 L 307.355469 216.179688 Z M 307.355469 54.046875 " fill-opacity="1" fill-rule="nonzero"/></g></g><g clip-path="url(#ec3b9a4ab3)"><g clip-path="url(#5440c08db3)"><path fill="#f49097" d="M 319.210938 168.410156 L 355.824219 168.410156 L 355.824219 196.304688 L 319.210938 196.304688 Z M 319.210938 168.410156 " fill-opacity="1" fill-rule="nonzero"/></g></g><g clip-path="url(#45389fb8cf)"><g clip-path="url(#3989926910)"><path fill="#f49097" d="M 323.570312 150.976562 L 360.179688 150.976562 L 360.179688 173.640625 L 323.570312 173.640625 Z M 323.570312 150.976562 " fill-opacity="1" fill-rule="nonzero"/></g></g><g clip-path="url(#19cfe2eedd)"><g clip-path="url(#84bc59fc21)"><path fill="#f49097" d="M 118.550781 209.554688 L 139.46875 209.554688 L 139.46875 256.625 L 118.550781 256.625 Z M 118.550781 209.554688 " fill-opacity="1" fill-rule="nonzero"/></g></g><g clip-path="url(#ddb2feb4ac)"><g clip-path="url(#d7bdf1091f)"><path fill="#f49097" d="M 97.28125 205.023438 L 118.199219 205.023438 L 118.199219 243.378906 L 97.28125 243.378906 Z M 97.28125 205.023438 " fill-opacity="1" fill-rule="nonzero"/></g></g><g clip-path="url(#4669cb55d2)"><g clip-path="url(#e3a666af08)"><path fill="#f49097" d="M 71.652344 201.1875 L 96.058594 201.1875 L 96.058594 243.027344 L 71.652344 243.027344 Z M 71.652344 201.1875 " fill-opacity="1" fill-rule="nonzero"/></g></g><g clip-path="url(#3e8b8f0202)"><g clip-path="url(#a1911d130a)"><path fill="#f49097" d="M 43.410156 200.839844 L 64.332031 200.839844 L 64.332031 237.449219 L 43.410156 237.449219 Z M 43.410156 200.839844 " fill-opacity="1" fill-rule="nonzero"/></g></g><g clip-path="url(#2c95c8cc08)"><g clip-path="url(#e316b6b405)"><path fill="#ffffff" d="M 135.285156 179.046875 L 164.921875 179.046875 L 164.921875 278.417969 L 135.285156 278.417969 Z M 135.285156 179.046875 " fill-opacity="1" fill-rule="nonzero"/></g></g><g clip-path="url(#c9a6e70e4b)"><g clip-path="url(#01050a890a)"><path fill="#ffffff" d="M 147.316406 179.570312 L 166.492188 179.570312 L 166.492188 268.480469 L 147.316406 268.480469 Z M 147.316406 179.570312 " fill-opacity="1" fill-rule="nonzero"/></g></g><g clip-path="url(#90eb18be62)"><g clip-path="url(#d477d7be81)"><path fill="#ffffff" d="M 153.589844 181.835938 L 179.742188 181.835938 L 179.742188 265.519531 L 153.589844 265.519531 Z M 153.589844 181.835938 " fill-opacity="1" fill-rule="nonzero"/></g></g><g clip-path="url(#cac5078880)"><g clip-path="url(#2e31f8235b)"><path fill="#ffffff" d="M 154.8125 182.535156 L 196.652344 182.535156 L 196.652344 269.703125 L 154.8125 269.703125 Z M 154.8125 182.535156 " fill-opacity="1" fill-rule="nonzero"/></g></g></svg>